<svg width="358" height="356" viewBox="0 0 358 356" fill="none" xmlns="http://www.w3.org/2000/svg">
<path d="M179.002 356.005C277.861 356.005 358.002 276.314 358.002 178.01C358.002 79.7054 277.861 0.0141602 179.002 0.0141602C80.143 0.0141602 0.00186157 79.7054 0.00186157 178.01C0.00186157 276.314 80.143 356.005 179.002 356.005Z" fill="#AED313"/>
<path d="M179.001 350.967C275.068 350.967 352.945 273.527 352.945 178C352.945 82.473 275.068 5.03296 179.001 5.03296C82.935 5.03296 5.05771 82.473 5.05771 178C5.05771 273.527 82.935 350.967 179.001 350.967Z" fill="#AED313"/>
<path d="M254.941 31.42L238.826 33.8767L230.056 21.4991L247.706 14.5361L254.941 31.42Z" fill="white"/>
<path d="M324.931 252.994L324.394 237.049L335.222 228.597L342 245.664L324.931 252.994Z" fill="white"/>
<path d="M33.0186 252.578L31.3789 237.65L22.8919 228.111L15.9999 245.139L33.0186 252.578Z" fill="white"/>
<path d="M22.8817 125.522L32.4272 117.373L33.0433 101.07L16.1139 108.241L22.8817 125.522Z" fill="white"/>
<path d="M334.133 125.75L322.888 116.345L324.031 101.491L340.911 108.767L334.133 125.75Z" fill="white"/>
<path d="M230.201 333.295L239.473 322.267L254.792 323.081L247.527 340L230.201 333.295Z" fill="white"/>
<path d="M127.109 333.141L116.351 324.446L102.701 322.902L110.09 339.722L127.109 333.141Z" fill="white"/>
<path d="M128.157 20.8985L117.255 31.3752L103.596 30.8491L110.915 14L128.157 20.8985Z" fill="white"/>
<path d="M179 342C270.127 342 344 268.127 344 177C344 85.873 270.127 12 179 12C87.873 12 13.9999 85.873 13.9999 177C13.9999 268.127 87.873 342 179 342Z" fill="white"/>
<path d="M178.691 10.0934C176.459 10.0934 174.644 8.27861 174.644 6.0467C174.644 3.81479 176.459 2 178.691 2C180.923 2 182.738 3.81479 182.738 6.0467C182.738 8.27861 180.923 10.0934 178.691 10.0934Z" fill="#03111D"/>
<path d="M8.04659 180.651C10.2815 180.651 12.0933 178.839 12.0933 176.605C12.0933 174.37 10.2815 172.558 8.04659 172.558C5.81165 172.558 3.99991 174.37 3.99991 176.605C3.99991 178.839 5.81165 180.651 8.04659 180.651Z" fill="#03111D"/>
<path d="M351.953 180.651C349.721 180.651 347.907 178.836 347.907 176.605C347.907 174.373 349.721 172.558 351.953 172.558C354.185 172.558 356 174.373 356 176.605C356 178.836 354.185 180.651 351.953 180.651Z" fill="#03111D"/>
<path d="M178.691 354C176.459 354 174.644 352.185 174.644 349.953C174.644 347.721 176.459 345.907 178.691 345.907C180.923 345.907 182.738 347.721 182.738 349.953C182.738 352.185 180.923 354 178.691 354Z" fill="#03111D"/>
<path d="M304.383 301.093C302.151 301.093 300.336 299.279 300.336 297.047C300.336 294.815 302.151 293 304.383 293C306.614 293 308.429 294.815 308.429 297.047C308.429 299.276 306.614 301.093 304.383 301.093Z" fill="#03111D"/>
<path d="M298.81 57.9879C296.578 57.9879 294.763 56.1731 294.763 53.9412C294.763 51.7093 296.578 49.8945 298.81 49.8945C301.042 49.8945 302.856 51.7093 302.856 53.9412C302.859 56.1707 301.042 57.9879 298.81 57.9879Z" fill="#03111D"/>
<path d="M59.5031 58.9879C57.2712 58.9879 55.4565 57.1731 55.4565 54.9412C55.4565 52.7093 57.2712 50.8945 59.5031 50.8945C61.735 50.8945 63.5498 52.7093 63.5498 54.9412C63.5498 57.1707 61.735 58.9879 59.5031 58.9879Z" fill="#03111D"/>
<path d="M56.2556 301.093C54.0236 301.093 52.2089 299.279 52.2089 297.047C52.2089 294.815 54.0236 293 56.2556 293C58.4875 293 60.3022 294.815 60.3022 297.047C60.3022 299.276 58.4875 301.093 56.2556 301.093Z" fill="#03111D"/>
</svg>
