<svg width="88" height="96" viewBox="0 0 88 96" fill="none" xmlns="http://www.w3.org/2000/svg">
<g style="mix-blend-mode:multiply">
<g style="mix-blend-mode:multiply" opacity="0.01">
<path d="M43.3945 2.3072L34.217 35.6325C34.1318 35.9409 34.1198 36.2646 34.1817 36.5784C34.2436 36.8921 34.3779 37.1875 34.5741 37.4416C34.7703 37.6957 35.0232 37.9015 35.313 38.0432C35.6028 38.1849 35.9217 38.2586 36.245 38.2586H54.5999C54.9231 38.2587 55.242 38.1851 55.5318 38.0434C55.8215 37.9017 56.0743 37.6957 56.2703 37.4416C56.4663 37.1874 56.6003 36.8919 56.6619 36.5782C56.7235 36.2644 56.711 35.9407 56.6254 35.6325L47.4455 2.3072C46.8843 0.267717 43.9605 0.267717 43.3945 2.3072Z" fill="#CACACA"/>
<path d="M43.0309 4.45145L35.0766 34.7881C35.038 34.9359 35.0344 35.0904 35.066 35.2397C35.0976 35.3891 35.1635 35.5292 35.2587 35.6493C35.3539 35.7693 35.4759 35.866 35.615 35.932C35.7542 35.9979 35.9068 36.0312 36.0611 36.0293H51.9672C52.1215 36.0312 52.2741 35.9979 52.4132 35.932C52.5524 35.866 52.6743 35.7693 52.7695 35.6493C52.8647 35.5292 52.9307 35.3891 52.9623 35.2397C52.9938 35.0904 52.9902 34.9359 52.9516 34.7881L44.985 4.45145C44.9329 4.23394 44.8081 4.04021 44.6308 3.90157C44.4534 3.76293 44.234 3.6875 44.008 3.6875C43.7819 3.6875 43.5625 3.76293 43.3852 3.90157C43.2079 4.04021 43.083 4.23394 43.0309 4.45145Z" fill="#020202"/>
</g>
<g style="mix-blend-mode:multiply">
<path d="M43.0277 4.46345L35.0808 34.788C35.0424 34.934 35.0384 35.0869 35.0691 35.2347C35.0997 35.3825 35.1642 35.5215 35.2576 35.6408C35.351 35.7602 35.4708 35.8568 35.6078 35.9233C35.7448 35.9898 35.8954 36.0243 36.048 36.0243H51.9418C52.0942 36.0238 52.2446 35.989 52.3813 35.9224C52.5181 35.8557 52.6376 35.7591 52.7309 35.6399C52.8242 35.5206 52.8887 35.3819 52.9196 35.2343C52.9505 35.0866 52.9468 34.934 52.909 34.788L44.9621 4.46345C44.9065 4.25158 44.7814 4.06394 44.6063 3.93C44.4313 3.79606 44.2162 3.72339 43.9949 3.72339C43.7735 3.72339 43.5585 3.79606 43.3834 3.93C43.2084 4.06394 43.0832 4.25158 43.0277 4.46345Z" fill="#010101"/>
</g>
<g style="mix-blend-mode:multiply">
<path d="M43.0154 4.47337L35.0833 34.7711C35.0432 34.9165 35.0379 35.0691 35.0677 35.2169C35.0974 35.3646 35.1615 35.5036 35.2548 35.6227C35.348 35.7419 35.468 35.838 35.6052 35.9035C35.7425 35.9689 35.8932 36.0021 36.0455 36.0002H51.9295C52.0817 36.0017 52.2321 35.9683 52.369 35.9026C52.5059 35.837 52.6256 35.7408 52.7186 35.6217C52.8116 35.5026 52.8754 35.3639 52.905 35.2163C52.9347 35.0687 52.9293 34.9163 52.8893 34.7711L44.9474 4.47337C44.9034 4.25198 44.783 4.05256 44.6068 3.90922C44.4306 3.76587 44.2095 3.6875 43.9814 3.6875C43.7532 3.6875 43.5321 3.76587 43.3559 3.90922C43.1797 4.05256 43.0594 4.25198 43.0154 4.47337Z" fill="black"/>
</g>
</g>
<path d="M42.8787 1.39947L33.7037 36.4017C33.6593 36.5694 33.6544 36.7451 33.6893 36.915C33.7243 37.085 33.7983 37.2448 33.9055 37.382C34.0127 37.5193 34.1503 37.6304 34.3077 37.7069C34.4652 37.7833 34.6382 37.823 34.8136 37.823H53.1636C53.3389 37.8225 53.5117 37.7825 53.6689 37.7059C53.8261 37.6293 53.9635 37.5182 54.0706 37.3811C54.1777 37.2439 54.2517 37.0844 54.2868 36.9146C54.322 36.7449 54.3175 36.5694 54.2736 36.4017L45.0986 1.39947C45.0347 1.15646 44.891 0.941286 44.6902 0.787694C44.4893 0.634103 44.2426 0.550781 43.9886 0.550781C43.7347 0.550781 43.488 0.634103 43.2871 0.787694C43.0862 0.941286 42.9426 1.15646 42.8787 1.39947Z" fill="#001F30"/>
<g style="mix-blend-mode:multiply" filter="url(#filter0_f_40000014_17408)">
<path d="M44.0001 79.9999C59.464 79.9999 72.0001 67.6032 72.0001 52.3111C72.0001 37.019 59.464 24.6223 44.0001 24.6223C28.5361 24.6223 16.0001 37.019 16.0001 52.3111C16.0001 67.6032 28.5361 79.9999 44.0001 79.9999Z" fill="url(#paint0_radial_40000014_17408)" fill-opacity="0.9" style="mix-blend-mode:multiply"/>
</g>
<path d="M44.0016 73.0441C55.5808 73.0441 64.9677 63.7616 64.9677 52.311C64.9677 40.8604 55.5808 31.5779 44.0016 31.5779C32.4223 31.5779 23.0354 40.8604 23.0354 52.311C23.0354 63.7616 32.4223 73.0441 44.0016 73.0441Z" fill="url(#paint1_linear_40000014_17408)"/>
<path d="M44.0016 71.3405C54.6294 71.3405 63.2449 62.8207 63.2449 52.311C63.2449 41.8013 54.6294 33.2815 44.0016 33.2815C33.3737 33.2815 24.7582 41.8013 24.7582 52.311C24.7582 62.8207 33.3737 71.3405 44.0016 71.3405Z" fill="url(#paint2_linear_40000014_17408)"/>
<defs>
<filter id="filter0_f_40000014_17408" x="0.729294" y="9.35155" width="86.5415" height="85.919" filterUnits="userSpaceOnUse" color-interpolation-filters="sRGB">
<feFlood flood-opacity="0" result="BackgroundImageFix"/>
<feBlend mode="normal" in="SourceGraphic" in2="BackgroundImageFix" result="shape"/>
<feGaussianBlur stdDeviation="7.63538" result="effect1_foregroundBlur_40000014_17408"/>
</filter>
<linearGradient id="paint1_linear_40000014_17408" x1="29.1764" y1="37.6522" x2="58.4974" y2="67.3028" gradientUnits="userSpaceOnUse">
<stop stop-color="white"/>
<stop offset="1" stop-color="#999999"/>
</linearGradient>
<linearGradient id="paint2_linear_40000014_17408" x1="30.3946" y1="38.8569" x2="57.3064" y2="66.0712" gradientUnits="userSpaceOnUse">
<stop stop-color="#F2F2F2"/>
<stop offset="1" stop-color="#B3B3B3"/>
</linearGradient>
</defs>
</svg>
